# Blender v2.83.2 OBJ File: ''
# www.blender.org
mtllib softshadowtest.mtl
o Plane
v -13.424829 0.000000 13.424829
v 13.424829 0.000000 13.424829
v -13.424829 0.000000 -13.424829
v 13.424829 0.000000 -13.424829
v -0.243879 0.000000 -0.243879
v -0.243879 0.000000 0.243879
v 0.243879 0.000000 0.243879
v 0.243879 0.000000 -0.243879
v -0.243879 3.723029 -0.243879
v -0.243879 3.723029 0.243879
v 0.243879 3.723029 0.243879
v 0.243879 3.723029 -0.243879
vt 0.618718 0.381282
vt 0.618718 0.618718
vt 0.618718 0.618718
vt 0.618718 0.381282
vt 0.381282 0.381282
vt 0.381282 0.618718
vt 0.000000 1.000000
vt 0.000000 0.000000
vt 1.000000 0.000000
vt 1.000000 1.000000
vt 0.381282 0.381282
vt 0.381282 0.618718
vn 1.0000 0.0000 0.0000
vn 0.0000 1.0000 0.0000
vn -1.0000 0.0000 0.0000
vn 0.0000 0.0000 -1.0000
vn 0.0000 0.0000 1.0000
usemtl None
s off
f 7/1/1 8/2/1 12/3/1 11/4/1
f 6/5/2 5/6/2 3/7/2 1/8/2
f 7/1/2 6/5/2 1/8/2 2/9/2
f 8/2/2 7/1/2 2/9/2 4/10/2
f 5/6/2 8/2/2 4/10/2 3/7/2
f 10/11/2 11/4/2 12/3/2 9/12/2
f 5/6/3 6/5/3 10/11/3 9/12/3
f 8/2/4 5/6/4 9/12/4 12/3/4
f 6/5/5 7/1/5 11/4/5 10/11/5
